<mxfile host="app.diagrams.net" modified="2023-02-01T18:55:19.257Z" agent="5.0 (Windows NT 10.0; Win64; x64) AppleWebKit/537.36 (KHTML, like Gecko) Chrome/109.0.0.0 Safari/537.36" etag="pi83nYyJH1IVAmtS54m9" version="20.8.15" type="github">
  <diagram name="Page-1" id="_wQ-q2bkU1VHD-ZbXz1o">
    <mxGraphModel dx="1050" dy="581" grid="1" gridSize="10" guides="1" tooltips="1" connect="1" arrows="1" fold="1" page="1" pageScale="1" pageWidth="850" pageHeight="1100" math="0" shadow="0">
      <root>
        <mxCell id="0" />
        <mxCell id="1" parent="0" />
        <mxCell id="Xgc_8A5IghA-3g2R3Lxa-1" style="edgeStyle=orthogonalEdgeStyle;rounded=0;orthogonalLoop=1;jettySize=auto;html=1;exitX=0.75;exitY=1;exitDx=0;exitDy=0;entryX=0.107;entryY=-0.035;entryDx=0;entryDy=0;entryPerimeter=0;" edge="1" parent="1" source="Xgc_8A5IghA-3g2R3Lxa-2" target="Xgc_8A5IghA-3g2R3Lxa-4">
          <mxGeometry relative="1" as="geometry" />
        </mxCell>
        <mxCell id="Xgc_8A5IghA-3g2R3Lxa-2" value="&lt;b&gt;IDLE&lt;/b&gt;" style="rounded=1;whiteSpace=wrap;html=1;fillColor=#dae8fc;strokeColor=#6c8ebf;" vertex="1" parent="1">
          <mxGeometry x="180" y="40" width="110" height="40" as="geometry" />
        </mxCell>
        <mxCell id="Xgc_8A5IghA-3g2R3Lxa-3" style="edgeStyle=orthogonalEdgeStyle;rounded=0;orthogonalLoop=1;jettySize=auto;html=1;exitX=0.75;exitY=1;exitDx=0;exitDy=0;entryX=0.5;entryY=0;entryDx=0;entryDy=0;" edge="1" parent="1" source="Xgc_8A5IghA-3g2R3Lxa-4" target="Xgc_8A5IghA-3g2R3Lxa-6">
          <mxGeometry relative="1" as="geometry" />
        </mxCell>
        <mxCell id="Xgc_8A5IghA-3g2R3Lxa-4" value="&lt;b&gt;Patient&lt;/b&gt;&lt;br&gt;&lt;b&gt;Admitted&lt;/b&gt;" style="rounded=1;whiteSpace=wrap;html=1;fillColor=#dae8fc;strokeColor=#6c8ebf;" vertex="1" parent="1">
          <mxGeometry x="270" y="100" width="90" height="40" as="geometry" />
        </mxCell>
        <mxCell id="Xgc_8A5IghA-3g2R3Lxa-5" style="edgeStyle=orthogonalEdgeStyle;rounded=0;orthogonalLoop=1;jettySize=auto;html=1;exitX=0.5;exitY=1;exitDx=0;exitDy=0;entryX=0.5;entryY=0;entryDx=0;entryDy=0;" edge="1" parent="1" source="Xgc_8A5IghA-3g2R3Lxa-6" target="Xgc_8A5IghA-3g2R3Lxa-8">
          <mxGeometry relative="1" as="geometry" />
        </mxCell>
        <mxCell id="Xgc_8A5IghA-3g2R3Lxa-6" value="&lt;b&gt;Validate&lt;/b&gt;" style="rounded=1;whiteSpace=wrap;html=1;fillColor=#dae8fc;strokeColor=#6c8ebf;" vertex="1" parent="1">
          <mxGeometry x="290" y="190" width="100" height="40" as="geometry" />
        </mxCell>
        <mxCell id="Xgc_8A5IghA-3g2R3Lxa-7" style="edgeStyle=orthogonalEdgeStyle;rounded=0;orthogonalLoop=1;jettySize=auto;html=1;exitX=1;exitY=0.5;exitDx=0;exitDy=0;entryX=0;entryY=0.75;entryDx=0;entryDy=0;" edge="1" parent="1" source="Xgc_8A5IghA-3g2R3Lxa-8" target="Xgc_8A5IghA-3g2R3Lxa-10">
          <mxGeometry relative="1" as="geometry" />
        </mxCell>
        <mxCell id="Xgc_8A5IghA-3g2R3Lxa-8" value="&lt;b&gt;Operated&lt;/b&gt;" style="rounded=1;whiteSpace=wrap;html=1;fillColor=#dae8fc;strokeColor=#6c8ebf;" vertex="1" parent="1">
          <mxGeometry x="290" y="280" width="100" height="50" as="geometry" />
        </mxCell>
        <mxCell id="Xgc_8A5IghA-3g2R3Lxa-9" style="edgeStyle=orthogonalEdgeStyle;rounded=0;orthogonalLoop=1;jettySize=auto;html=1;exitX=0.25;exitY=1;exitDx=0;exitDy=0;entryX=0.676;entryY=0.036;entryDx=0;entryDy=0;entryPerimeter=0;" edge="1" parent="1" source="Xgc_8A5IghA-3g2R3Lxa-10" target="Xgc_8A5IghA-3g2R3Lxa-12">
          <mxGeometry relative="1" as="geometry" />
        </mxCell>
        <mxCell id="Xgc_8A5IghA-3g2R3Lxa-10" value="&lt;b&gt;Bill Generation&lt;/b&gt;" style="rounded=1;whiteSpace=wrap;html=1;fillColor=#dae8fc;strokeColor=#6c8ebf;" vertex="1" parent="1">
          <mxGeometry x="425" y="290" width="95" height="50" as="geometry" />
        </mxCell>
        <mxCell id="Xgc_8A5IghA-3g2R3Lxa-11" style="edgeStyle=orthogonalEdgeStyle;rounded=0;orthogonalLoop=1;jettySize=auto;html=1;exitX=1;exitY=0.25;exitDx=0;exitDy=0;entryX=0.147;entryY=0.657;entryDx=0;entryDy=0;entryPerimeter=0;" edge="1" parent="1" source="Xgc_8A5IghA-3g2R3Lxa-12" target="Xgc_8A5IghA-3g2R3Lxa-13">
          <mxGeometry relative="1" as="geometry" />
        </mxCell>
        <mxCell id="Xgc_8A5IghA-3g2R3Lxa-12" value="&lt;b&gt;Patient Discharge&lt;/b&gt;" style="rounded=1;whiteSpace=wrap;html=1;fillColor=#dae8fc;strokeColor=#6c8ebf;" vertex="1" parent="1">
          <mxGeometry x="390" y="400" width="97" height="50" as="geometry" />
        </mxCell>
        <mxCell id="Xgc_8A5IghA-3g2R3Lxa-13" value="" style="ellipse;html=1;shape=endState;fillColor=#000000;strokeColor=#ff0000;" vertex="1" parent="1">
          <mxGeometry x="580" y="440" width="30" height="60" as="geometry" />
        </mxCell>
        <mxCell id="Xgc_8A5IghA-3g2R3Lxa-14" value="&lt;b&gt;Event of patient&lt;/b&gt;" style="whiteSpace=wrap;html=1;aspect=fixed;fillColor=#f5f5f5;fontColor=#333333;strokeColor=#666666;" vertex="1" parent="1">
          <mxGeometry x="100" y="140" width="70" height="70" as="geometry" />
        </mxCell>
        <mxCell id="Xgc_8A5IghA-3g2R3Lxa-15" value="" style="ellipse;html=1;shape=startState;fillColor=#000000;strokeColor=#ff0000;" vertex="1" parent="1">
          <mxGeometry x="80" y="10" width="30" height="30" as="geometry" />
        </mxCell>
        <mxCell id="Xgc_8A5IghA-3g2R3Lxa-16" value="" style="edgeStyle=orthogonalEdgeStyle;html=1;verticalAlign=bottom;endArrow=open;endSize=8;strokeColor=#ff0000;rounded=0;entryX=0;entryY=0.5;entryDx=0;entryDy=0;" edge="1" parent="1" source="Xgc_8A5IghA-3g2R3Lxa-15" target="Xgc_8A5IghA-3g2R3Lxa-2">
          <mxGeometry relative="1" as="geometry">
            <mxPoint x="95" y="100" as="targetPoint" />
          </mxGeometry>
        </mxCell>
        <mxCell id="Xgc_8A5IghA-3g2R3Lxa-17" value="" style="endArrow=none;dashed=1;html=1;rounded=0;exitX=1;exitY=0.106;exitDx=0;exitDy=0;exitPerimeter=0;" edge="1" parent="1" source="Xgc_8A5IghA-3g2R3Lxa-14">
          <mxGeometry width="50" height="50" relative="1" as="geometry">
            <mxPoint x="400" y="310" as="sourcePoint" />
            <mxPoint x="280" y="90" as="targetPoint" />
            <Array as="points" />
          </mxGeometry>
        </mxCell>
      </root>
    </mxGraphModel>
  </diagram>
</mxfile>
